<svg xmlns="http://www.w3.org/2000/svg" viewBox="0 0 512 512" width="100%" height="100%">
  <defs>
    <linearGradient id="gradAwards" x1="0%" y1="0%" x2="100%" y2="100%">
      <stop offset="0%" stop-color="#FFD700" />
      <stop offset="100%" stop-color="#5f4416" />
    </linearGradient>
  </defs>
  <rect width="100%" height="100%" fill="#0B0E1A" />
  <g transform="translate(256, 246)" stroke="#ffffff" stroke-width="6" stroke-linecap="round" stroke-linejoin="round" fill="none" opacity="0.95">
    <path d="M-40 -110 h80 v50 a40 40 0 0 1 -80 0 z" fill="url(#gradAwards)" fill-opacity="0.25"/>
    <path d="M-40 -100 h-30 a10 10 0 0 0 0 20 c8 10 20 14 30 14"/>
    <path d="M40 -100 h30 a10 10 0 0 1 0 20 c-8 10 -20 14 -30 14"/>
    <line x1="0" y1="-20" x2="0" y2="20"/>
    <line x1="-36" y1="50" x2="36" y2="50"/>
    <line x1="0" y1="20" x2="0" y2="50"/>
    <path d="M0 -128 l7 15 16 2 -12 11 3 16 -14 -8 -14 8 3 -16 -12 -11 16 -2 z" fill="#ffffff"/>
  </g>
</svg>
